<svg xmlns="http://www.w3.org/2000/svg" xmlns:xlink="http://www.w3.org/1999/xlink" preserveAspectRatio="xMidYMid" width="172" height="173" viewBox="0 0 172 173">
  <defs>
    <style>
      .cls-1 {
        fill: #f9772a;
        fill-rule: evenodd;
      }
    </style>
  </defs>
  <path d="M95.199,115.771 L92.255,136.062 L83.424,109.249 L95.199,115.771 ZM111.766,100.921 L105.750,89.009 L132.495,99.058 L111.766,100.921 ZM171.000,162.149 L113.597,107.800 L136.917,104.930 C139.318,98.853 140.643,92.249 140.643,85.336 C140.643,55.419 116.014,31.167 85.632,31.167 C55.251,31.167 30.621,55.419 30.621,85.336 C30.621,115.252 55.251,139.504 85.632,139.504 C90.612,139.504 95.432,138.843 100.017,137.619 L101.936,117.416 L159.110,171.998 L126.448,158.341 C114.343,164.917 100.435,168.671 85.632,168.671 C38.892,168.671 1.000,131.360 1.000,85.336 C1.000,39.311 38.892,2.000 85.632,2.000 C132.373,2.000 170.264,39.311 170.264,85.336 C170.264,102.265 165.117,118.000 156.307,131.146 L171.000,162.149 Z" class="cls-1"/>
</svg>
